<?xml version="1.0" encoding="utf-8"?>
<!-- Generator: Adobe Illustrator 21.1.0, SVG Export Plug-In . SVG Version: 6.00 Build 0)  -->
<svg version="1.1" id="Capa_1" xmlns="http://www.w3.org/2000/svg" xmlns:xlink="http://www.w3.org/1999/xlink" x="0px" y="0px"
	 viewBox="0 0 512 512" style="enable-background:new 0 0 512 512;" xml:space="preserve">
<style type="text/css">
	.st0{fill:#FF6501;}
</style>
<g>
	<g>
		<path class="st0" d="M422,90V60c0-33.1-26.9-60-60-60H60C26.9,0,0,26.9,0,60v362h90v30c0,33.1,26.9,60,60,60h302
			c33.1,0,60-26.9,60-60V90H422z M90,392H30v-60h60V392z M90,302H30V60c0-16.5,13.5-30,30-30s30,13.5,30,30V302z M180,452
			c0,16.5-13.5,30-30,30s-30-13.5-30-30V60c0-10.9-2.9-21.2-8.1-30H362c16.5,0,30,13.5,30,30v30H180V452z M482,452
			c0,16.5-13.5,30-30,30H201.9c5.1-8.8,8.1-19.1,8.1-30V293.5l35.3-21.1l50.3,30l50.3-30l50.3,30l50.3-30l35.3,21.1V452H482z
			 M482,258.6l-35.3-21.1l-50.3,30l-50.3-30l-50.3,30l-50.3-30L210,258.6V210h272V258.6z M482,180H210v-60h30.4v30h30v-30h30.4v30
			h30v-30h30.4v30h30v-30h30.4v30h30v-30H482V180z"/>
	</g>
</g>
</svg>
