<?xml version="1.0" encoding="utf-8"?>
<!-- Generator: Adobe Illustrator 21.1.0, SVG Export Plug-In . SVG Version: 6.00 Build 0)  -->
<svg version="1.1" id="Camada_1" xmlns="http://www.w3.org/2000/svg" xmlns:xlink="http://www.w3.org/1999/xlink" x="0px" y="0px"
	 viewBox="0 0 70 70" style="enable-background:new 0 0 70 70;" xml:space="preserve">
<style type="text/css">
	.st0{fill:#FF6501;}
	.st1{fill:#DC0000;}
	.st2{fill:#CFFA00;}
</style>
<g>
	<g>
		<g>
			<path d="M14.5,40.9c-1.4,0-2.5,0.5-3.3,1.6C10.4,43.5,10,45,10,46.9c0,4,1.5,5.9,4.5,5.9c1.2,0,2.8-0.3,4.5-0.9v3.2
				c-1.5,0.6-3.1,0.9-4.9,0.9c-2.6,0-4.6-0.8-5.9-2.4c-1.4-1.6-2.1-3.8-2.1-6.7c0-1.8,0.3-3.5,1-4.9c0.7-1.4,1.6-2.5,2.9-3.2
				c1.3-0.7,2.7-1.1,4.4-1.1c1.7,0,3.5,0.4,5.2,1.3L18.5,42c-0.7-0.3-1.3-0.6-2-0.8C15.8,41,15.1,40.9,14.5,40.9z"/>
			<path d="M33.7,55.7l-1.3-4.2h-6.5l-1.3,4.2h-4.1l6.3-17.8h4.6l6.3,17.8H33.7z M31.5,48.4c-1.2-3.8-1.9-6-2-6.5
				c-0.1-0.5-0.3-0.9-0.3-1.2c-0.3,1-1,3.6-2.3,7.7H31.5z"/>
			<path d="M43.7,55.7H40V38h10.2v3.1h-6.5v4.6h6v3.1h-6V55.7z"/>
			<path d="M63.8,55.7H53.6V38h10.2v3.1h-6.5V45h6v3.1h-6v4.6h6.5V55.7z"/>
		</g>
	</g>
	<g>
		<circle class="st0" cx="13.3" cy="22.1" r="4.6"/>
		<path class="st0" d="M13.3,35.4c7.3,0,13.3-5.9,13.3-13.3h-4.1c0,5.1-4.1,9.2-9.2,9.2c-5.1,0-9.2-4.1-9.2-9.2H0
			C0,29.4,5.9,35.4,13.3,35.4z"/>
		<circle class="st1" cx="56.7" cy="22.1" r="4.6"/>
		<path class="st1" d="M56.7,35.4c7.3,0,13.3-5.9,13.3-13.3h-4.1c0,5.1-4.1,9.2-9.2,9.2c-5.1,0-9.2-4.1-9.2-9.2h-4.1
			C43.4,29.4,49.4,35.4,56.7,35.4z"/>
		<circle class="st2" cx="35" cy="18.6" r="4.6"/>
		<path class="st2" d="M35,30.8c7.3,0,13.3-5.9,13.3-13.3h-4.1c0,5.1-4.1,9.2-9.2,9.2c-5.1,0-9.2-4.1-9.2-9.2h-4.1
			C21.7,24.9,27.7,30.8,35,30.8z"/>
	</g>
</g>
</svg>
