<?xml version="1.0" encoding="utf-8"?>
<!-- Generator: Adobe Illustrator 21.1.0, SVG Export Plug-In . SVG Version: 6.00 Build 0)  -->
<svg version="1.1" id="Camada_1" xmlns="http://www.w3.org/2000/svg" xmlns:xlink="http://www.w3.org/1999/xlink" x="0px" y="0px"
	 viewBox="0 0 120 53" style="enable-background:new 0 0 120 53;" xml:space="preserve">
<style type="text/css">
	.st0{fill:#FF6501;}
	.st1{fill:#DC0000;}
	.st2{fill:#FFFE00;}
</style>
<g>
	
		<ellipse transform="matrix(0.9976 -6.907005e-02 6.907005e-02 0.9976 -0.7686 1.0532)" class="st0" cx="14.8" cy="11.6" rx="7.7" ry="7.7"/>
	<path class="st0" d="M12.3,42.6c0,0-10.7-26.8,3.3-20.4c0,0,13.6-10.2,6.1,19.8"/>
	
		<ellipse transform="matrix(5.623240e-02 -0.9984 0.9984 5.623240e-02 23.8996 48.6719)" class="st1" cx="37.7" cy="11.7" rx="7.7" ry="7.7"/>
	<path class="st1" d="M31.3,42.5c0,0-8.8-28.4,6.1-19.8c0,0,15.3-9.6,3.3,20.4"/>
	<circle class="st2" cx="26.5" cy="30.3" r="4.9"/>
	<path class="st2" d="M23.6,49.9c0,0-6.1-17.1,3.1-12.6c0,0,8.9-6.9,2.9,12.6"/>
</g>
<g>
	<g>
		<path d="M67.7,21.2c-1.4,0-2.4,0.5-3.2,1.5c-0.7,1-1.1,2.4-1.1,4.3c0,3.8,1.4,5.7,4.3,5.7c1.2,0,2.6-0.3,4.3-0.9v3
			c-1.4,0.6-3,0.9-4.7,0.9c-2.5,0-4.4-0.8-5.7-2.3c-1.3-1.5-2-3.7-2-6.5c0-1.8,0.3-3.3,1-4.7c0.6-1.3,1.6-2.4,2.8-3.1
			c1.2-0.7,2.6-1.1,4.2-1.1c1.7,0,3.3,0.4,5,1.2l-1.2,2.9c-0.6-0.3-1.3-0.6-1.9-0.8C69,21.3,68.3,21.2,67.7,21.2z"/>
		<path d="M86.1,35.5l-1.2-4.1h-6.2l-1.2,4.1h-3.9l6-17.1H84l6,17.1H86.1z M84,28.4c-1.1-3.7-1.8-5.7-1.9-6.2
			c-0.1-0.5-0.2-0.9-0.3-1.1c-0.3,1-1,3.4-2.2,7.4H84z"/>
		<path d="M95.7,35.5h-3.6v-17h9.8v3h-6.2v4.4h5.8v2.9h-5.8V35.5z"/>
		<path d="M115,35.5h-9.8v-17h9.8v3h-6.2v3.7h5.8v3h-5.8v4.4h6.2V35.5z"/>
	</g>
</g>
</svg>
