<?xml version="1.0" encoding="utf-8"?>
<!-- Generator: Adobe Illustrator 21.1.0, SVG Export Plug-In . SVG Version: 6.00 Build 0)  -->
<svg version="1.1" id="Camada_1" xmlns="http://www.w3.org/2000/svg" xmlns:xlink="http://www.w3.org/1999/xlink" x="0px" y="0px"
	 viewBox="0 0 120 20.3" style="enable-background:new 0 0 120 20.3;" xml:space="preserve">
<style type="text/css">
	.st0{fill:#FF6501;}
	.st1{fill:#DC0000;}
	.st2{fill:#CFFA00;}
</style>
<g>
	<circle class="st0" cx="14.9" cy="8.1" r="3.8"/>
	<path class="st0" d="M14.9,18.9c6,0,10.9-4.9,10.9-10.9h-3.3c0,4.2-3.4,7.6-7.6,7.6c-4.1-0.1-7.5-3.5-7.5-7.6H4
		C4,14,8.9,18.9,14.9,18.9z"/>
	<circle class="st1" cx="50.7" cy="8.1" r="3.8"/>
	<path class="st1" d="M50.7,18.9c6,0,10.9-4.9,10.9-10.9h-3.3c0,4.2-3.4,7.6-7.6,7.6s-7.6-3.4-7.6-7.6h-3.3
		C39.7,14,44.6,18.9,50.7,18.9z"/>
	<circle class="st2" cx="32.8" cy="5.2" r="3.8"/>
	<path class="st2" d="M32.8,16c6,0,10.9-4.9,10.9-10.9h-3.3c0,4.2-3.4,7.6-7.6,7.6s-7.6-3.4-7.6-7.6h-3.3C21.9,11.1,26.8,16,32.8,16
		z"/>
</g>
<g>
	<g>
		<path d="M78,5.3c-1.1,0-2,0.4-2.6,1.3c-0.6,0.9-0.9,2.1-0.9,3.6c0,3.2,1.2,4.8,3.6,4.8c1,0,2.2-0.3,3.6-0.8v2.5
			c-1.2,0.5-2.5,0.7-3.9,0.7c-2.1,0-3.7-0.6-4.8-1.9c-1.1-1.3-1.7-3.1-1.7-5.4c0-1.5,0.3-2.8,0.8-3.9c0.5-1.1,1.3-2,2.3-2.6
			c1-0.6,2.2-0.9,3.6-0.9c1.4,0,2.8,0.3,4.2,1l-1,2.5c-0.5-0.3-1.1-0.5-1.6-0.7C79,5.4,78.5,5.3,78,5.3z"/>
		<path d="M93.4,17.3l-1-3.4h-5.2l-1,3.4h-3.3l5-14.3h3.7l5.1,14.3H93.4z M91.6,11.4c-1-3.1-1.5-4.8-1.6-5.2c-0.1-0.4-0.2-0.7-0.3-1
			c-0.2,0.8-0.8,2.9-1.8,6.2H91.6z"/>
		<path d="M101.4,17.3h-3V3h8.2v2.5h-5.2v3.7h4.8v2.5h-4.8V17.3z"/>
		<path d="M117.7,17.3h-8.2V3h8.2v2.5h-5.2v3.1h4.8v2.5h-4.8v3.7h5.2V17.3z"/>
	</g>
</g>
</svg>
