<?xml version="1.0" encoding="utf-8"?>
<!-- Generator: Adobe Illustrator 21.1.0, SVG Export Plug-In . SVG Version: 6.00 Build 0)  -->
<svg version="1.1" id="Capa_1" xmlns="http://www.w3.org/2000/svg" xmlns:xlink="http://www.w3.org/1999/xlink" x="0px" y="0px"
	 viewBox="0 0 683.3 683.3" style="enable-background:new 0 0 683.3 683.3;" xml:space="preserve">
<style type="text/css">
	.st0{fill:#FF6501;}
</style>
<g>
	<path class="st0" d="M647.6,150.2c0-42.9-34.9-77.9-77.9-77.9c-6.2,0-12.2,0.9-18,2.3C531,54.5,470.1,7.3,351.4,0.6
		C198.3-8.2,132.9,90.8,115.7,123.2c-21,3.9-28.9,24.8-32.6,34.9l-19.7,63.2l-0.7,4.5c0,14.6,8,27.3,19.7,34.3l-0.7,3.7
		c-14.4,1.2-31.5,7.5-40.2,25c-7.3,14.5-7.7,32.5-1.3,48c4.8,11.6,13.1,21,23.4,26.8c1.8,14.8,5.4,46,5.4,65
		c0,49.8,10.5,137.7,80.6,166.6c27.6,11.4,45.8,28.7,63.5,45.4c23.1,21.8,44.8,42.5,80.9,42.5h46.9c36.2,0,61.2-21.1,87.7-43.3
		c19.5-16.4,39.7-33.4,66.8-44.6c84.2-34.7,85.2-161.9,85.2-167.3c0-27.5-3.6-52.3-6.2-66.3c8.8-5.9,15.9-14.6,20.2-24.9
		c6.5-15.6,6-33.5-1.3-48c-8.8-17.5-25.9-23.8-40.3-25l-0.6-3c7.5-4.4,13-10.1,16-16.9c2.3-5.3,2.5-10.8,1.6-16
		C612.8,227.9,647.6,193,647.6,150.2z M349.7,31c97.2,5.5,150.6,39.5,172.7,57.8c-12.5,9.7-21.9,23.1-26.7,38.6
		c-23.4,6.5-89.6,22.5-176.3,22.5c-76.7,0-140.8-13.3-171.9-21.1C167.5,95.8,225.4,24,349.7,31z M112,167.9c4.2-11.5,7-14.2,9-14.8
		c16.5,5,95.9,27.3,198.5,27.3c79.8,0,142.3-12.7,173.4-20.7c3.3,26.8,20.1,49.4,43.6,60.6l3.9,11.5c-0.3,0.6-2.3,2.8-5.6,4.2
		c-1.1,0.3-113.7,27.1-217,27.1c-103.1,0-210-26.8-211.1-27.1l-3.7-0.4c-4.8,0-8.7-3.4-9.6-7.9L112,167.9z M566,302.4
		c3.4,6.7,3.5,15.2,0.4,22.7c-1.6,3.9-5.6,10.9-14.1,13.8l-13.2,4.4l3.2,13.6c0.1,0.3,7.8,33.4,7.8,71.2c0,1.1-0.7,112.1-66.3,139.1
		c-31.5,13-54.5,32.4-74.8,49.5c-24,20.2-43,36.2-68.1,36.2H294c-23.9,0-39-14.3-59.9-34.2c-18.8-17.8-40.1-38-72.9-51.5
		c-53.7-22.1-61.7-96.2-61.7-138.4c0-27.6-6.4-75.4-6.7-77.4l-1.3-9.4l-9-3c-8.5-2.8-12.5-9.8-14.1-13.7c-3.1-7.5-3-16,0.4-22.7
		c5.3-10.5,23.1-8.1,23.1-8.1l14.6,2.3l5.5-28.2c31.8,7.2,118.8,25,206,25c82,0,167-15.7,205.3-23.8l5.3,27l14.5-2.3
		C543,294.3,560.7,292,566,302.4z M569.8,197.5c-26.1,0-47.4-21.2-47.4-47.4s21.2-47.4,47.4-47.4s47.4,21.3,47.4,47.4
		C617.2,176.3,595.9,197.5,569.8,197.5z"/>
	<path class="st0" d="M501.1,306c-8,3.2-26.5,17.5-26.5,81.8c0,13.7-3.2,23.1-9.6,28.2c-7.7,6.1-20,5.7-25.7,4.7
		c-13.8-7.2-77.6-39.3-115.7-39.3c-37.9,0-93,29.9-106,37.3c-8.1,1.4-25.6,2.5-35.7-5.5c-6.2-5-9.3-13.3-9.3-25.5
		c0-64.3-18.6-78.6-26.5-81.8l-11.3,28.3c-1.7-0.7-2.5-1.4-2.5-1.4c0.1,0.1,9.9,9.7,9.9,54.9c0,27.2,11.4,41.9,20.9,49.4
		c24.4,19.3,59.5,11.7,63.4,10.8l4.2-1.6c16.5-9.6,65.2-34.5,92.9-34.5c27.9,0,84.1,26.6,103.4,36.8l3.5,1.4
		c1.4,0.3,7.7,1.8,16.2,1.8c10.7,0,24.8-2.2,36.9-11.7c14.1-11.1,21.3-28.7,21.3-52.2c0-45.1,9.7-54.8,9.8-54.9c0,0-0.8,0.7-2.5,1.4
		L501.1,306z"/>
	<circle class="st0" cx="231.2" cy="330.3" r="28.7"/>
	<circle class="st0" cx="398.9" cy="330.3" r="28.7"/>
	<path class="st0" d="M319.3,482c-42.6,0-66.3-23.7-67.3-24.7l-22,21.1c1.3,1.4,33.2,34.1,89.3,34.1s88-32.7,89.3-34.1l-22-21
		C386.3,457.6,362.5,482,319.3,482z"/>
</g>
</svg>
