<?xml version="1.0" encoding="utf-8"?>
<!-- Generator: Adobe Illustrator 21.1.0, SVG Export Plug-In . SVG Version: 6.00 Build 0)  -->
<svg version="1.1" id="Capa_1" xmlns="http://www.w3.org/2000/svg" xmlns:xlink="http://www.w3.org/1999/xlink" x="0px" y="0px"
	 viewBox="0 0 512 512" style="enable-background:new 0 0 512 512;" xml:space="preserve">
<style type="text/css">
	.st0{fill:#FF6501;}
</style>
<g>
	<g>
		<path class="st0" d="M256-1C147-1,64,212.3,64,319.1C64,424.9,150.1,511,256,511s192-86.1,192-191.9C448,212.3,365-1,256-1z
			 M256,20.3c35.3,0,73.3,31.3,106.2,86.5l-0.9-0.4c-2.6-1.1-5.6-1.1-8.3,0l-46.5,19.6l-46.5-19.6c-2.6-1.1-5.6-1.1-8.3,0
			l-46.5,19.6l-46.5-19.6c-2.6-1.1-5.6-1.1-8.3,0l-0.4,0.2C182.8,51.5,220.7,20.3,256,20.3z M133.9,136.6l20.7-8.7l46.5,19.6
			c2.6,1.1,5.6,1.1,8.3,0l46.5-19.6l46.5,19.6c1.3,0.6,2.7,0.8,4.1,0.8s2.8-0.3,4.1-0.8l46.5-19.6l21.1,8.9
			c19,38.8,33.7,82.8,41.7,123l-12,5l-46.6-19.6c-2.6-1.1-5.6-1.1-8.3,0l-46.5,19.6l-46.5-19.6c-2.6-1.1-5.6-1.1-8.3,0l-46.5,19.6
			l-46.5-19.6c-2.6-1.1-5.6-1.1-8.3,0L104,264.8l-11.9-5C100.1,219.5,114.9,175.4,133.9,136.6z M256,489.7
			c-56.2,0-106-27.4-137.1-69.4l35.6-15l46.5,19.6c2.6,1.1,5.6,1.1,8.3,0l46.5-19.6l46.5,19.6c1.3,0.6,2.7,0.8,4.1,0.8
			s2.8-0.3,4.1-0.8l46.5-19.6l35.9,15.1C361.9,462.3,312.2,489.7,256,489.7z M361.3,383.8c-2.6-1.1-5.6-1.1-8.3,0l-46.5,19.6
			l-46.5-19.6c-2.6-1.1-5.6-1.1-8.3,0l-46.5,19.6l-46.5-19.6c-2.6-1.1-5.6-1.1-8.3,0l-43.3,18.3c-13.8-24.6-21.7-52.9-21.7-83
			c0-11.6,1.2-24.4,3.1-37.8l11.4,4.8c2.7,1.1,5.6,1.1,8.3,0l46.4-19.6l46.5,19.6c2.6,1.1,5.6,1.1,8.3,0l46.5-19.6l46.5,19.6
			c1.3,0.6,2.7,0.8,4.1,0.8s2.8-0.3,4.1-0.8l46.5-19.6l46.6,19.6c2.6,1.1,5.6,1.1,8.3,0l11.6-4.9c1.9,13.4,3.1,26.2,3.1,37.8
			c0,30.2-7.9,58.5-21.8,83.1L361.3,383.8z"/>
	</g>
</g>
</svg>
